<svg xmlns="http://www.w3.org/2000/svg" viewBox="0 0 900 208" font-family="system-ui,-apple-system,sans-serif">
<defs><marker id="ah" markerWidth="8" markerHeight="6" refX="8" refY="3" orient="auto"><path d="M0,0 L8,3 L0,6Z" fill="#64748B" /></marker><marker id="ag" markerWidth="8" markerHeight="6" refX="8" refY="3" orient="auto"><path d="M0,0 L8,3 L0,6Z" fill="#10B981" /></marker><marker id="ar" markerWidth="8" markerHeight="6" refX="8" refY="3" orient="auto"><path d="M0,0 L8,3 L0,6Z" fill="#EF4444" /></marker><marker id="ap" markerWidth="8" markerHeight="6" refX="8" refY="3" orient="auto"><path d="M0,0 L8,3 L0,6Z" fill="#7C3AED" /></marker><linearGradient id="ig" x1="0" y1="0" x2="0" y2="1"><stop offset="0%" stop-color="#FFF7ED" /><stop offset="100%" stop-color="#FFEDD5" /></linearGradient><pattern id="noise" width="6" height="6" patternUnits="userSpaceOnUse"><circle cx="1" cy="1" r=".7" fill="#EF4444" opacity=".5" /><circle cx="4" cy="4" r=".7" fill="#EF4444" opacity=".5" /></pattern><pattern id="zp" width="8" height="8" patternUnits="userSpaceOnUse"><rect width="8" height="8" fill="#FEF2F2" /><line x1="0" y1="8" x2="8" y2="0" stroke="#FECACA" stroke-width=".8" /></pattern><filter id="sh"><feDropShadow dx="0" dy="2" stdDeviation="3" flood-opacity=".08" /></filter></defs>

<text x="450" y="28" text-anchor="middle" font-size="18" font-weight="700" fill="#0F172A">SOLAR DUS &#8212; Depth Up-Scaling via Layer Overlap</text><line x1="200" y1="40" x2="700" y2="40" stroke="#CBD5E1" />
<rect x="30" y="52" width="840" height="100" rx="12" fill="#F8FAFC" stroke="#E2E8F0" stroke-dasharray="6,3" />
<text x="50" y="72" font-size="10" fill="#94A3B8" font-weight="600">LAYER PIPELINE</text>
<g transform="translate(50,80)">
  <rect x="0" y="0" width="70" height="40" rx="6" fill="#94A3B8" filter="url(#sh)" /><text x="35" y="25" text-anchor="middle" font-size="10" fill="#fff" font-weight="600">Embed</text>
  <line x1="70" y1="20" x2="86" y2="20" stroke="#64748B" stroke-width="1.5" marker-end="url(#ah)" />
  <rect x="88" y="0" width="85" height="40" rx="6" fill="#93C5FD" filter="url(#sh)" /><text x="130" y="25" text-anchor="middle" font-size="10" fill="#1E3A5F" font-weight="600">L0&#8211;L7</text>
  <line x1="173" y1="20" x2="189" y2="20" stroke="#64748B" stroke-width="1.5" marker-end="url(#ah)" />
  <rect x="191" y="0" width="115" height="40" rx="6" fill="#3B82F6" filter="url(#sh)" /><text x="248" y="16" text-anchor="middle" font-size="10" fill="#fff" font-weight="600">L8&#8211;L23</text><text x="248" y="32" text-anchor="middle" font-size="9" fill="#BFDBFE">Upper Segment</text>
  <line x1="306" y1="20" x2="322" y2="20" stroke="#64748B" stroke-width="1.5" marker-end="url(#ah)" />
  <rect x="324" y="0" width="115" height="40" rx="6" fill="#EF4444" filter="url(#sh)" /><text x="381" y="16" text-anchor="middle" font-size="10" fill="#fff" font-weight="600">L8&#700;&#8211;L23&#700;</text><text x="381" y="32" text-anchor="middle" font-size="9" fill="#FECACA">Overlap Copy</text>
  <line x1="439" y1="20" x2="455" y2="20" stroke="#64748B" stroke-width="1.5" marker-end="url(#ah)" />
  <rect x="457" y="0" width="115" height="40" rx="6" fill="#3B82F6" filter="url(#sh)" /><text x="514" y="16" text-anchor="middle" font-size="10" fill="#fff" font-weight="600">L24&#8211;L31</text><text x="514" y="32" text-anchor="middle" font-size="9" fill="#BFDBFE">Lower Segment</text>
  <line x1="572" y1="20" x2="588" y2="20" stroke="#64748B" stroke-width="1.5" marker-end="url(#ah)" />
  <rect x="590" y="0" width="85" height="40" rx="6" fill="#94A3B8" filter="url(#sh)" /><text x="632" y="25" text-anchor="middle" font-size="10" fill="#fff" font-weight="600">LM Head</text>
</g>
<path d="M241,124 L241,160 L439,160 L439,124" stroke="#EF4444" stroke-width="1.8" fill="none" />
<text x="340" y="178" text-anchor="middle" font-size="12" fill="#DC2626" font-weight="700">Overlap Zone &#8212; minimizes distribution shift at splice point</text>
</svg>