<svg xmlns="http://www.w3.org/2000/svg" viewBox="0 0 780 140" font-family="system-ui,-apple-system,sans-serif">
<defs>
  <marker id="ah" markerWidth="8" markerHeight="6" refX="8" refY="3" orient="auto"><path d="M0,0 L8,3 L0,6Z" fill="#64748B"/></marker>
  <marker id="ag" markerWidth="8" markerHeight="6" refX="8" refY="3" orient="auto"><path d="M0,0 L8,3 L0,6Z" fill="#10B981"/></marker>
  <marker id="ar" markerWidth="8" markerHeight="6" refX="8" refY="3" orient="auto"><path d="M0,0 L8,3 L0,6Z" fill="#EF4444"/></marker>
  <linearGradient id="ig" x1="0" y1="0" x2="0" y2="1"><stop offset="0%" stop-color="#FFF7ED"/><stop offset="100%" stop-color="#FFEDD5"/></linearGradient>
  <filter id="sh"><feDropShadow dx="0" dy="2" stdDeviation="3" flood-opacity="0.08"/></filter>
</defs>

  <text x="390" y="24" text-anchor="middle" font-size="17" font-weight="700" fill="#0F172A">Attention Mechanism Upgrade — MHA / GQA / MLA</text>
  <line x1="170" y1="36" x2="610" y2="36" stroke="#CBD5E1"/>
  <rect x="40" y="48" width="180" height="70" rx="10" fill="#DBEAFE" stroke="#3B82F6" stroke-width="1.5" filter="url(#sh)"/>
  <text x="130" y="70" text-anchor="middle" font-size="13" fill="#1E40AF" font-weight="700">MHA</text>
  <text x="130" y="88" text-anchor="middle" font-size="10" fill="#475569">Independent K/V per head</text>
  <text x="130" y="104" text-anchor="middle" font-size="10" fill="#DC2626" font-weight="600">KV Cache: Large</text>
  <line x1="220" y1="83" x2="258" y2="83" stroke="#64748B" stroke-width="2" marker-end="url(#ah)"/>
  <rect x="260" y="48" width="200" height="70" rx="10" fill="#D1FAE5" stroke="#10B981" stroke-width="1.5" filter="url(#sh)"/>
  <text x="360" y="70" text-anchor="middle" font-size="13" fill="#047857" font-weight="700">GQA</text>
  <text x="360" y="88" text-anchor="middle" font-size="10" fill="#475569">Grouped K/V sharing</text>
  <text x="360" y="104" text-anchor="middle" font-size="10" fill="#059669" font-weight="600">KV Cache: Reduced</text>
  <line x1="460" y1="83" x2="498" y2="83" stroke="#64748B" stroke-width="2" marker-end="url(#ah)"/>
  <rect x="500" y="48" width="240" height="70" rx="10" fill="#FEE2E2" stroke="#EF4444" stroke-width="1.5" filter="url(#sh)"/>
  <text x="620" y="70" text-anchor="middle" font-size="13" fill="#991B1B" font-weight="700">MLA</text>
  <text x="620" y="88" text-anchor="middle" font-size="10" fill="#475569">Compressed latent KV</text>
  <text x="620" y="104" text-anchor="middle" font-size="10" fill="#059669" font-weight="700">KV Cache: Minimal</text>
  <line x1="60" y1="130" x2="720" y2="130" stroke="#10B981" stroke-width="2.5" marker-end="url(#ag)"/>
  <text x="390" y="126" text-anchor="middle" font-size="11" fill="#10B981" font-weight="700">KV Cache decreasing → Inference efficiency increasing →</text>

</svg>