<svg xmlns="http://www.w3.org/2000/svg" viewBox="0 0 800 140" font-family="system-ui,-apple-system,sans-serif">
<defs>
  <marker id="ah" markerWidth="8" markerHeight="6" refX="8" refY="3" orient="auto"><path d="M0,0 L8,3 L0,6Z" fill="#64748B"/></marker>
  <marker id="ag" markerWidth="8" markerHeight="6" refX="8" refY="3" orient="auto"><path d="M0,0 L8,3 L0,6Z" fill="#10B981"/></marker>
  <marker id="ar" markerWidth="8" markerHeight="6" refX="8" refY="3" orient="auto"><path d="M0,0 L8,3 L0,6Z" fill="#EF4444"/></marker>
  <linearGradient id="ig" x1="0" y1="0" x2="0" y2="1"><stop offset="0%" stop-color="#FFF7ED"/><stop offset="100%" stop-color="#FFEDD5"/></linearGradient>
  <filter id="sh"><feDropShadow dx="0" dy="2" stdDeviation="3" flood-opacity="0.08"/></filter>
</defs>

  <text x="400" y="24" text-anchor="middle" font-size="17" font-weight="700" fill="#0F172A">Expansion + Knowledge Distillation Pipeline</text>
  <line x1="180" y1="36" x2="620" y2="36" stroke="#CBD5E1"/>
  <g transform="translate(10,50)">
    <rect x="0" y="0" width="95" height="44" rx="6" fill="#DBEAFE" stroke="#3B82F6" stroke-width="1.2" filter="url(#sh)"/><text x="47" y="18" text-anchor="middle" font-size="10" fill="#1E40AF" font-weight="600">Small Model</text><text x="47" y="34" text-anchor="middle" font-size="9" fill="#64748B">Qwen3-32B</text>
    <line x1="95" y1="22" x2="118" y2="22" stroke="#64748B" stroke-width="1.8" marker-end="url(#ah)"/>
    <rect x="120" y="0" width="110" height="44" rx="6" fill="#EF4444" filter="url(#sh)"/><text x="175" y="18" text-anchor="middle" font-size="10" fill="#fff" font-weight="600">Expanded ~72B</text><text x="175" y="34" text-anchor="middle" font-size="9" fill="#FECACA">func-preserving</text>
    <line x1="230" y1="22" x2="253" y2="22" stroke="#64748B" stroke-width="1.8" marker-end="url(#ah)"/>
    <rect x="255" y="0" width="130" height="44" rx="6" fill="#3B82F6" filter="url(#sh)"/><text x="320" y="18" text-anchor="middle" font-size="10" fill="#fff" font-weight="600">Distillation</text><text x="320" y="34" text-anchor="middle" font-size="9" fill="#BFDBFE">L = CE + KL</text>
    <rect x="255" y="58" width="130" height="32" rx="6" fill="#8B5CF6" filter="url(#sh)"/><text x="320" y="79" text-anchor="middle" font-size="10" fill="#fff" font-weight="600">Teacher 235B</text>
    <line x1="320" y1="58" x2="320" y2="44" stroke="#7C3AED" stroke-width="2" stroke-dasharray="5,3"/>
    <line x1="385" y1="22" x2="408" y2="22" stroke="#64748B" stroke-width="1.8" marker-end="url(#ah)"/>
    <rect x="410" y="0" width="85" height="44" rx="6" fill="#F97316" filter="url(#sh)"/><text x="452" y="18" text-anchor="middle" font-size="10" fill="#fff" font-weight="600">SFT Align</text><text x="452" y="34" text-anchor="middle" font-size="9" fill="#FED7AA">few data</text>
    <line x1="495" y1="22" x2="518" y2="22" stroke="#64748B" stroke-width="1.8" marker-end="url(#ah)"/>
    <rect x="520" y="0" width="130" height="44" rx="6" fill="#10B981" filter="url(#sh)"/><text x="585" y="18" text-anchor="middle" font-size="11" fill="#fff" font-weight="700">Final Model</text><text x="585" y="34" text-anchor="middle" font-size="9" fill="#D1FAE5">Highest quality ceiling</text>
    <text x="680" y="74" font-size="9" fill="#7C3AED" font-weight="600">soft labels</text>
  </g>

</svg>