<svg xmlns="http://www.w3.org/2000/svg" viewBox="0 0 900 236" font-family="system-ui,-apple-system,sans-serif">
<defs><marker id="ah" markerWidth="8" markerHeight="6" refX="8" refY="3" orient="auto"><path d="M0,0 L8,3 L0,6Z" fill="#64748B" /></marker><marker id="ag" markerWidth="8" markerHeight="6" refX="8" refY="3" orient="auto"><path d="M0,0 L8,3 L0,6Z" fill="#10B981" /></marker><marker id="ar" markerWidth="8" markerHeight="6" refX="8" refY="3" orient="auto"><path d="M0,0 L8,3 L0,6Z" fill="#EF4444" /></marker><marker id="ap" markerWidth="8" markerHeight="6" refX="8" refY="3" orient="auto"><path d="M0,0 L8,3 L0,6Z" fill="#7C3AED" /></marker><linearGradient id="ig" x1="0" y1="0" x2="0" y2="1"><stop offset="0%" stop-color="#FFF7ED" /><stop offset="100%" stop-color="#FFEDD5" /></linearGradient><pattern id="noise" width="6" height="6" patternUnits="userSpaceOnUse"><circle cx="1" cy="1" r=".7" fill="#EF4444" opacity=".5" /><circle cx="4" cy="4" r=".7" fill="#EF4444" opacity=".5" /></pattern><pattern id="zp" width="8" height="8" patternUnits="userSpaceOnUse"><rect width="8" height="8" fill="#FEF2F2" /><line x1="0" y1="8" x2="8" y2="0" stroke="#FECACA" stroke-width=".8" /></pattern><filter id="sh"><feDropShadow dx="0" dy="2" stdDeviation="3" flood-opacity=".08" /></filter></defs>

<text x="450" y="28" text-anchor="middle" font-size="18" font-weight="700" fill="#0F172A">MoE Base Model &#8212; Four Expansion Dimensions</text><line x1="200" y1="40" x2="700" y2="40" stroke="#CBD5E1" />
<rect x="320" y="52" width="260" height="40" rx="10" fill="#1E293B" filter="url(#sh)" /><text x="450" y="78" text-anchor="middle" font-size="13" fill="#fff" font-weight="700">MoE Base Expansion</text>
<line x1="450" y1="92" x2="450" y2="106" stroke="#94A3B8" stroke-width="1.8" />
<line x1="115" y1="106" x2="785" y2="106" stroke="#94A3B8" stroke-width="1.5" />
<line x1="115" y1="106" x2="115" y2="122" stroke="#94A3B8" stroke-width="1.5" marker-end="url(#ah)" />
<line x1="338" y1="106" x2="338" y2="122" stroke="#94A3B8" stroke-width="1.5" marker-end="url(#ah)" />
<line x1="562" y1="106" x2="562" y2="122" stroke="#94A3B8" stroke-width="1.5" marker-end="url(#ah)" />
<line x1="785" y1="106" x2="785" y2="122" stroke="#94A3B8" stroke-width="1.5" marker-end="url(#ah)" />
<rect x="30" y="126" width="170" height="80" rx="10" fill="#F0FDF4" stroke="#86EFAC" stroke-width="1.5" filter="url(#sh)" /><text x="115" y="150" text-anchor="middle" font-size="12" fill="#047857" font-weight="700">M1 Expert Count</text><text x="115" y="168" text-anchor="middle" font-size="10" fill="#475569">E &#8594; mE experts</text><text x="115" y="186" text-anchor="middle" font-size="10" fill="#059669" font-weight="600">Inference &#8776; same</text><text x="115" y="200" text-anchor="middle" font-size="10" fill="#059669" font-weight="700">&#11088; Preferred</text>
<rect x="253" y="126" width="170" height="80" rx="10" fill="#EFF6FF" stroke="#93C5FD" stroke-width="1.5" filter="url(#sh)" /><text x="338" y="150" text-anchor="middle" font-size="12" fill="#1E40AF" font-weight="700">M2 Depth</text><text x="338" y="168" text-anchor="middle" font-size="10" fill="#475569">Identity layer insert</text><text x="338" y="186" text-anchor="middle" font-size="10" fill="#1E40AF">Func-preserving &#10003;</text><text x="338" y="200" text-anchor="middle" font-size="10" fill="#475569">Latency &#8593; linear</text>
<rect x="477" y="126" width="170" height="80" rx="10" fill="#FEF2F2" stroke="#FCA5A5" stroke-width="1.5" filter="url(#sh)" /><text x="562" y="150" text-anchor="middle" font-size="12" fill="#991B1B" font-weight="700">M3 Expert Width</text><text x="562" y="168" text-anchor="middle" font-size="10" fill="#475569">intermediate_size &#8593;</text><text x="562" y="186" text-anchor="middle" font-size="10" fill="#991B1B">Zero-pad FP &#10003;</text><text x="562" y="200" text-anchor="middle" font-size="10" fill="#475569">Per-expert FLOPs &#8593;</text>
<rect x="700" y="126" width="170" height="80" rx="10" fill="#F5F3FF" stroke="#C4B5FD" stroke-width="1.5" filter="url(#sh)" /><text x="785" y="150" text-anchor="middle" font-size="12" fill="#5B21B6" font-weight="700">M4 Attention</text><text x="785" y="168" text-anchor="middle" font-size="10" fill="#475569">heads / d_model &#8593;</text><text x="785" y="186" text-anchor="middle" font-size="10" fill="#5B21B6">o_proj=0 FP &#10003;</text><text x="785" y="200" text-anchor="middle" font-size="10" fill="#475569">Active params &#8593;</text>
</svg>