<svg xmlns="http://www.w3.org/2000/svg" viewBox="0 0 780 190" font-family="system-ui,-apple-system,sans-serif">
<defs>
  <marker id="ah" markerWidth="8" markerHeight="6" refX="8" refY="3" orient="auto"><path d="M0,0 L8,3 L0,6Z" fill="#64748B"/></marker>
  <marker id="ag" markerWidth="8" markerHeight="6" refX="8" refY="3" orient="auto"><path d="M0,0 L8,3 L0,6Z" fill="#10B981"/></marker>
  <marker id="ar" markerWidth="8" markerHeight="6" refX="8" refY="3" orient="auto"><path d="M0,0 L8,3 L0,6Z" fill="#EF4444"/></marker>
  <linearGradient id="ig" x1="0" y1="0" x2="0" y2="1"><stop offset="0%" stop-color="#FFF7ED"/><stop offset="100%" stop-color="#FFEDD5"/></linearGradient>
  <filter id="sh"><feDropShadow dx="0" dy="2" stdDeviation="3" flood-opacity="0.08"/></filter>
</defs>

  <text x="390" y="24" text-anchor="middle" font-size="17" font-weight="700" fill="#0F172A">MoE Base Model — Four Expansion Dimensions</text>
  <line x1="180" y1="36" x2="600" y2="36" stroke="#CBD5E1"/>
  <rect x="300" y="48" width="180" height="34" rx="8" fill="#1E293B" filter="url(#sh)"/><text x="390" y="70" text-anchor="middle" font-size="12" fill="#fff" font-weight="700">MoE Base Expansion</text>
  <line x1="390" y1="82" x2="390" y2="94" stroke="#94A3B8" stroke-width="1.5"/>
  <line x1="100" y1="94" x2="680" y2="94" stroke="#94A3B8" stroke-width="1.5"/>
  <line x1="100" y1="94" x2="100" y2="108" stroke="#94A3B8" stroke-width="1" marker-end="url(#ah)"/>
  <line x1="293" y1="94" x2="293" y2="108" stroke="#94A3B8" stroke-width="1" marker-end="url(#ah)"/>
  <line x1="487" y1="94" x2="487" y2="108" stroke="#94A3B8" stroke-width="1" marker-end="url(#ah)"/>
  <line x1="680" y1="94" x2="680" y2="108" stroke="#94A3B8" stroke-width="1" marker-end="url(#ah)"/>
  <rect x="24" y="112" width="152" height="50" rx="8" fill="#F0FDF4" stroke="#86EFAC" stroke-width="1.5" filter="url(#sh)"/><text x="100" y="132" text-anchor="middle" font-size="11" fill="#047857" font-weight="700">M1 Expert Count</text><text x="100" y="148" text-anchor="middle" font-size="9" fill="#059669">Inference ≈ unchanged ⭐</text>
  <rect x="217" y="112" width="152" height="50" rx="8" fill="#EFF6FF" stroke="#93C5FD" stroke-width="1.5" filter="url(#sh)"/><text x="293" y="132" text-anchor="middle" font-size="11" fill="#1E40AF" font-weight="700">M2 Depth</text><text x="293" y="148" text-anchor="middle" font-size="9" fill="#475569">Identity layers, latency ↑</text>
  <rect x="411" y="112" width="152" height="50" rx="8" fill="#FEF2F2" stroke="#FCA5A5" stroke-width="1.5" filter="url(#sh)"/><text x="487" y="132" text-anchor="middle" font-size="11" fill="#991B1B" font-weight="700">M3 Expert Width</text><text x="487" y="148" text-anchor="middle" font-size="9" fill="#475569">intermediate_size ↑</text>
  <rect x="604" y="112" width="152" height="50" rx="8" fill="#F5F3FF" stroke="#C4B5FD" stroke-width="1.5" filter="url(#sh)"/><text x="680" y="132" text-anchor="middle" font-size="11" fill="#5B21B6" font-weight="700">M4 Attention</text><text x="680" y="148" text-anchor="middle" font-size="9" fill="#475569">heads / d_model ↑</text>

</svg>