<svg xmlns="http://www.w3.org/2000/svg" viewBox="0 0 900 374" font-family="system-ui,-apple-system,sans-serif">
<defs><marker id="ah" markerWidth="8" markerHeight="6" refX="8" refY="3" orient="auto"><path d="M0,0 L8,3 L0,6Z" fill="#64748B" /></marker><marker id="ag" markerWidth="8" markerHeight="6" refX="8" refY="3" orient="auto"><path d="M0,0 L8,3 L0,6Z" fill="#10B981" /></marker><marker id="ar" markerWidth="8" markerHeight="6" refX="8" refY="3" orient="auto"><path d="M0,0 L8,3 L0,6Z" fill="#EF4444" /></marker><marker id="ap" markerWidth="8" markerHeight="6" refX="8" refY="3" orient="auto"><path d="M0,0 L8,3 L0,6Z" fill="#7C3AED" /></marker><linearGradient id="ig" x1="0" y1="0" x2="0" y2="1"><stop offset="0%" stop-color="#FFF7ED" /><stop offset="100%" stop-color="#FFEDD5" /></linearGradient><pattern id="noise" width="6" height="6" patternUnits="userSpaceOnUse"><circle cx="1" cy="1" r=".7" fill="#EF4444" opacity=".5" /><circle cx="4" cy="4" r=".7" fill="#EF4444" opacity=".5" /></pattern><pattern id="zp" width="8" height="8" patternUnits="userSpaceOnUse"><rect width="8" height="8" fill="#FEF2F2" /><line x1="0" y1="8" x2="8" y2="0" stroke="#FECACA" stroke-width=".8" /></pattern><filter id="sh"><feDropShadow dx="0" dy="2" stdDeviation="3" flood-opacity=".08" /></filter></defs>

<text x="450" y="28" text-anchor="middle" font-size="18" font-weight="700" fill="#0F172A">Qwen3 Parameter Expansion &#8212; Comprehensive Decision Flowchart</text><line x1="200" y1="40" x2="700" y2="40" stroke="#CBD5E1" />
<rect x="330" y="52" width="240" height="38" rx="10" fill="#1E293B" filter="url(#sh)" /><text x="450" y="77" text-anchor="middle" font-size="12" fill="#fff" font-weight="700">Need Parameter Expansion</text>
<line x1="450" y1="90" x2="450" y2="108" stroke="#64748B" stroke-width="1.8" marker-end="url(#ah)" />
<polygon points="450,112 560,146 450,180 340,146" fill="#FEF3C7" stroke="#EAB308" stroke-width="1.5" filter="url(#sh)" />
<text x="450" y="150" text-anchor="middle" font-size="11" fill="#78350F" font-weight="700">Accept architecture change?</text>

<line x1="340" y1="146" x2="220" y2="146" stroke="#64748B" stroke-width="1.8" /><rect x="250" y="134" width="32" height="16" rx="4" fill="#F1F5F9" /><text x="266" y="146" text-anchor="middle" font-size="9" fill="#64748B" font-weight="600">No</text>
<line x1="220" y1="146" x2="220" y2="168" stroke="#64748B" stroke-width="1.8" marker-end="url(#ah)" />
<polygon points="220,172 320,202 220,232 120,202" fill="#FEF3C7" stroke="#EAB308" stroke-width="1.5" filter="url(#sh)" />
<text x="220" y="206" text-anchor="middle" font-size="10" fill="#78350F" font-weight="700">Training data budget?</text>
<line x1="120" y1="202" x2="70" y2="202" stroke="#64748B" stroke-width="1.2" /><text x="92" y="194" font-size="8" fill="#64748B">&lt;20B</text>
<line x1="70" y1="202" x2="70" y2="228" stroke="#64748B" stroke-width="1.2" marker-end="url(#ah)" />
<rect x="10" y="232" width="120" height="44" rx="10" fill="#10B981" filter="url(#sh)" /><text x="70" y="252" text-anchor="middle" font-size="11" fill="#fff" font-weight="700">A: LLaMA-Pro</text><text x="70" y="268" text-anchor="middle" font-size="9" fill="#D1FAE5">&#11088; Recommended</text>
<line x1="220" y1="232" x2="220" y2="258" stroke="#64748B" stroke-width="1.2" marker-end="url(#ah)" /><text x="240" y="250" font-size="8" fill="#64748B">20-100B</text>
<rect x="165" y="262" width="110" height="34" rx="8" fill="#3B82F6" filter="url(#sh)" /><text x="220" y="284" text-anchor="middle" font-size="10" fill="#fff" font-weight="600">Alt: LESA</text>
<line x1="320" y1="202" x2="370" y2="202" stroke="#64748B" stroke-width="1.2" /><text x="350" y="194" font-size="8" fill="#64748B">&gt;100B</text>
<line x1="370" y1="202" x2="370" y2="228" stroke="#64748B" stroke-width="1.2" marker-end="url(#ah)" />
<rect x="305" y="232" width="130" height="34" rx="8" fill="#3B82F6" filter="url(#sh)" /><text x="370" y="254" text-anchor="middle" font-size="10" fill="#fff" font-weight="600">Alt: SOLAR DUS</text>

<line x1="560" y1="146" x2="680" y2="146" stroke="#64748B" stroke-width="1.8" /><rect x="590" y="134" width="32" height="16" rx="4" fill="#F1F5F9" /><text x="606" y="146" text-anchor="middle" font-size="9" fill="#64748B" font-weight="600">Yes</text>
<line x1="680" y1="146" x2="680" y2="168" stroke="#64748B" stroke-width="1.8" marker-end="url(#ah)" />
<polygon points="680,172 780,202 680,232 580,202" fill="#FEF3C7" stroke="#EAB308" stroke-width="1.5" filter="url(#sh)" />
<text x="680" y="206" text-anchor="middle" font-size="10" fill="#78350F" font-weight="700">Priority?</text>
<line x1="580" y1="202" x2="520" y2="202" stroke="#64748B" stroke-width="1.2" /><text x="548" y="194" font-size="8" fill="#64748B">Efficiency</text>
<line x1="520" y1="202" x2="520" y2="232" stroke="#64748B" stroke-width="1.2" marker-end="url(#ah)" />
<rect x="455" y="236" width="130" height="44" rx="10" fill="#EF4444" filter="url(#sh)" /><text x="520" y="256" text-anchor="middle" font-size="11" fill="#fff" font-weight="700">C: MoE Upcycling</text><text x="520" y="272" text-anchor="middle" font-size="9" fill="#FECACA">Inference &#8776; same</text>
<line x1="780" y1="202" x2="830" y2="202" stroke="#64748B" stroke-width="1.2" /><text x="810" y="194" font-size="8" fill="#64748B">Capability</text>
<line x1="830" y1="202" x2="830" y2="228" stroke="#64748B" stroke-width="1.2" marker-end="url(#ah)" />
<polygon points="830,232 880,254 830,276 780,254" fill="#FEF3C7" stroke="#EAB308" stroke-width="1.2" filter="url(#sh)" />
<text x="830" y="258" text-anchor="middle" font-size="9" fill="#78350F" font-weight="700">Teacher?</text>
<path d="M880,254 L892,254 L892,290 L875,290" stroke="#64748B" stroke-width="1" fill="none" /><text x="892" y="276" font-size="7" fill="#64748B">Y</text>
<line x1="875" y1="290" x2="875" y2="306" stroke="#64748B" stroke-width="1" marker-end="url(#ah)" />
<rect x="810" y="310" width="130" height="34" rx="8" fill="#8B5CF6" filter="url(#sh)" /><text x="875" y="332" text-anchor="middle" font-size="10" fill="#fff" font-weight="700">D: Expand+KD</text>
<path d="M780,254 L768,254 L768,290 L785,290" stroke="#64748B" stroke-width="1" fill="none" /><text x="758" y="276" font-size="7" fill="#64748B">N</text>
<line x1="785" y1="290" x2="785" y2="306" stroke="#64748B" stroke-width="1" marker-end="url(#ah)" />
<rect x="720" y="310" width="130" height="34" rx="8" fill="#F97316" filter="url(#sh)" /><text x="785" y="332" text-anchor="middle" font-size="10" fill="#fff" font-weight="700">B: MSG Multi-D</text>

</svg>