<svg xmlns="http://www.w3.org/2000/svg" viewBox="0 0 780 340" font-family="system-ui,-apple-system,sans-serif">
<defs>
  <marker id="ah" markerWidth="8" markerHeight="6" refX="8" refY="3" orient="auto"><path d="M0,0 L8,3 L0,6Z" fill="#64748B"/></marker>
  <marker id="ag" markerWidth="8" markerHeight="6" refX="8" refY="3" orient="auto"><path d="M0,0 L8,3 L0,6Z" fill="#10B981"/></marker>
  <marker id="ar" markerWidth="8" markerHeight="6" refX="8" refY="3" orient="auto"><path d="M0,0 L8,3 L0,6Z" fill="#EF4444"/></marker>
  <linearGradient id="ig" x1="0" y1="0" x2="0" y2="1"><stop offset="0%" stop-color="#FFF7ED"/><stop offset="100%" stop-color="#FFEDD5"/></linearGradient>
  <filter id="sh"><feDropShadow dx="0" dy="2" stdDeviation="3" flood-opacity="0.08"/></filter>
</defs>

  <text x="390" y="24" text-anchor="middle" font-size="17" font-weight="700" fill="#0F172A">Qwen3 Parameter Expansion — Decision Flowchart</text>
  <line x1="170" y1="36" x2="610" y2="36" stroke="#CBD5E1"/>
  <rect x="290" y="46" width="200" height="34" rx="10" fill="#1E293B" filter="url(#sh)"/><text x="390" y="68" text-anchor="middle" font-size="12" fill="#fff" font-weight="700">Need Param Expansion</text>
  <line x1="390" y1="80" x2="390" y2="96" stroke="#64748B" stroke-width="1.8" marker-end="url(#ah)"/>
  <polygon points="390,100 480,130 390,160 300,130" fill="#FEF3C7" stroke="#EAB308" stroke-width="1.5" filter="url(#sh)"/>
  <text x="390" y="134" text-anchor="middle" font-size="10" fill="#78350F" font-weight="700">Accept arch change?</text>
  <line x1="300" y1="130" x2="190" y2="130" stroke="#64748B" stroke-width="1.8"/><text x="242" y="122" font-size="9" fill="#64748B" font-weight="600">No</text>
  <line x1="190" y1="130" x2="190" y2="148" stroke="#64748B" stroke-width="1.8" marker-end="url(#ah)"/>
  <polygon points="190,152 270,178 190,204 110,178" fill="#FEF3C7" stroke="#EAB308" stroke-width="1.5" filter="url(#sh)"/>
  <text x="190" y="182" text-anchor="middle" font-size="10" fill="#78350F" font-weight="700">Training budget?</text>
  <line x1="110" y1="178" x2="60" y2="178" stroke="#64748B" stroke-width="1.2"/><text x="82" y="170" font-size="8" fill="#64748B">&lt;20B</text>
  <line x1="60" y1="178" x2="60" y2="200" stroke="#64748B" stroke-width="1.2" marker-end="url(#ah)"/>
  <rect x="8" y="204" width="104" height="36" rx="8" fill="#10B981" filter="url(#sh)"/><text x="60" y="220" text-anchor="middle" font-size="10" fill="#fff" font-weight="700">A: LLaMA-Pro</text><text x="60" y="234" text-anchor="middle" font-size="8" fill="#D1FAE5">⭐ Recommended</text>
  <line x1="190" y1="204" x2="190" y2="226" stroke="#64748B" stroke-width="1.2" marker-end="url(#ah)"/><text x="205" y="220" font-size="8" fill="#64748B">20-100B</text>
  <rect x="140" y="230" width="100" height="28" rx="8" fill="#3B82F6" filter="url(#sh)"/><text x="190" y="249" text-anchor="middle" font-size="10" fill="#fff">Alt: LESA</text>
  <line x1="270" y1="178" x2="320" y2="178" stroke="#64748B" stroke-width="1.2"/><text x="300" y="170" font-size="8" fill="#64748B">&gt;100B</text>
  <line x1="320" y1="178" x2="320" y2="200" stroke="#64748B" stroke-width="1.2" marker-end="url(#ah)"/>
  <rect x="262" y="204" width="116" height="28" rx="8" fill="#3B82F6" filter="url(#sh)"/><text x="320" y="223" text-anchor="middle" font-size="10" fill="#fff">Alt: SOLAR DUS</text>
  <line x1="480" y1="130" x2="590" y2="130" stroke="#64748B" stroke-width="1.8"/><text x="536" y="122" font-size="9" fill="#64748B" font-weight="600">Yes</text>
  <line x1="590" y1="130" x2="590" y2="148" stroke="#64748B" stroke-width="1.8" marker-end="url(#ah)"/>
  <polygon points="590,152 670,178 590,204 510,178" fill="#FEF3C7" stroke="#EAB308" stroke-width="1.5" filter="url(#sh)"/>
  <text x="590" y="182" text-anchor="middle" font-size="10" fill="#78350F" font-weight="700">Priority?</text>
  <line x1="510" y1="178" x2="460" y2="178" stroke="#64748B" stroke-width="1.2"/><text x="482" y="170" font-size="8" fill="#64748B">Efficiency</text>
  <line x1="460" y1="178" x2="460" y2="204" stroke="#64748B" stroke-width="1.2" marker-end="url(#ah)"/>
  <rect x="400" y="208" width="120" height="36" rx="8" fill="#EF4444" filter="url(#sh)"/><text x="460" y="224" text-anchor="middle" font-size="10" fill="#fff" font-weight="700">C: MoE Upcycling</text><text x="460" y="238" text-anchor="middle" font-size="8" fill="#FECACA">Inference ≈ same</text>
  <line x1="670" y1="178" x2="720" y2="178" stroke="#64748B" stroke-width="1.2"/><text x="700" y="170" font-size="8" fill="#64748B">Capability</text>
  <line x1="720" y1="178" x2="720" y2="200" stroke="#64748B" stroke-width="1.2" marker-end="url(#ah)"/>
  <polygon points="720,204 758,220 720,236 682,220" fill="#FEF3C7" stroke="#EAB308" stroke-width="1.2" filter="url(#sh)"/>
  <text x="720" y="224" text-anchor="middle" font-size="8" fill="#78350F" font-weight="700">Teacher?</text>
  <path d="M758,220 L768,220 L768,254 L750,254" stroke="#64748B" stroke-width="1" fill="none"/><text x="770" y="242" font-size="7" fill="#64748B">Y</text>
  <line x1="750" y1="254" x2="750" y2="268" stroke="#64748B" stroke-width="1" marker-end="url(#ah)"/>
  <rect x="690" y="272" width="120" height="28" rx="8" fill="#8B5CF6" filter="url(#sh)"/><text x="750" y="291" text-anchor="middle" font-size="10" fill="#fff" font-weight="700">D: Expand+KD</text>
  <path d="M682,220 L672,220 L672,254 L690,254" stroke="#64748B" stroke-width="1" fill="none"/><text x="662" y="242" font-size="7" fill="#64748B">N</text>
  <line x1="690" y1="254" x2="690" y2="268" stroke="#64748B" stroke-width="1" marker-end="url(#ah)"/>
  <rect x="630" y="272" width="120" height="28" rx="8" fill="#F97316" filter="url(#sh)"/><text x="690" y="291" text-anchor="middle" font-size="10" fill="#fff" font-weight="700">B: MSG Multi-D</text>
  <text x="390" y="330" text-anchor="middle" font-size="10" fill="#64748B">A: zero loss, min data | B: exact 2×, latency ~1.4× | C: inference ≈ unchanged | D: highest ceiling</text>

</svg>